<svg width="60" height="83" viewBox="0 0 60 83" fill="none" xmlns="http://www.w3.org/2000/svg">
<path d="M46.9871 23.0372C46.366 23.8653 45.2137 24.0802 44.3387 23.5255L30.2367 13.7989C29.9437 13.6035 29.5687 13.6035 29.2758 13.7989L15.2248 23.5255C14.3459 24.1348 13.135 23.9161 12.5256 23.0372C11.9162 22.1583 12.1349 20.9474 13.0178 20.338L28.6428 9.51398V9.51789C29.3068 9.06086 30.1858 9.06086 30.8498 9.51789L36.2365 13.2367C36.4982 13.3968 36.8263 13.3968 37.088 13.2367C37.3654 13.0922 37.5411 12.807 37.5372 12.4945V11.1312C37.4982 10.5843 37.6857 10.0492 38.0607 9.6468C38.4318 9.24836 38.9552 9.01789 39.5021 9.01789C40.0489 9.01789 40.5685 9.24836 40.9435 9.6468C41.3146 10.0491 41.506 10.5843 41.463 11.1312V16.4437C41.463 16.7171 41.5997 16.9749 41.8302 17.1312L46.4864 20.3617C47.3614 20.9633 47.5848 22.1583 46.9871 23.0372ZM29.7571 15.4942L16.2141 24.8692C15.9407 25.0528 15.6438 25.1973 15.3313 25.2989V42.1429C15.3313 43.596 16.511 44.7757 17.9641 44.7757H22.4133V25.7057C22.4133 25.2447 22.7883 24.8697 23.2453 24.8697H36.3073C36.53 24.8697 36.7409 24.9596 36.8972 25.1158C37.0534 25.2721 37.1433 25.483 37.1433 25.7057V44.7757H41.5925H41.5885C43.0455 44.7757 44.2252 43.596 44.2252 42.1429V25.3379C43.9127 25.2363 43.612 25.0879 43.3385 24.9004L29.7571 15.4942ZM24.0383 44.7752H35.4953V26.5372H24.0383V44.7752ZM47.2143 74.1302C47.2143 70.5794 43.1205 67.5872 37.1093 66.2357H37.1132C36.3124 67.8919 35.7226 69.6419 35.3515 71.4427C34.8867 74.0794 32.6054 76.013 29.9257 76.0365H29.5898C26.9101 76.013 24.6289 74.0795 24.164 71.4427C23.7929 69.6419 23.203 67.8919 22.4023 66.2357C16.3906 67.5912 12.2973 70.5795 12.2973 74.1302C12.2973 79.0052 19.9653 82.8177 29.7543 82.8177C39.5512 82.8177 47.2143 79.0052 47.2143 74.1302ZM50.2573 8.26718C56.9604 14.6305 60.3193 23.7512 59.3354 32.9432C58.3515 42.1352 53.1362 50.3412 45.2374 55.1422C41.2296 57.4977 37.9757 60.9508 35.8624 65.0875C34.9054 67.0367 34.2022 69.0992 33.7765 71.2242C33.4562 73.068 31.8703 74.4273 29.9953 74.4547H29.6633C27.7922 74.4273 26.2024 73.068 25.8821 71.2242C25.4563 69.0953 24.7571 67.0289 23.8001 65.0797C21.7923 61.0094 18.636 57.6227 14.7142 55.3375C7.38997 51.0563 2.24517 43.8495 0.577172 35.5285C-1.08693 27.2082 0.885762 18.5755 5.99907 11.8015C11.1085 5.03198 18.8741 0.770479 27.3311 0.0944789C35.792 -0.581301 44.1323 2.39218 50.2573 8.26718ZM36.2883 57.9232C36.2883 57.1107 35.9641 56.3294 35.3899 55.7552C34.8156 55.181 34.0383 54.8606 33.2258 54.8606H26.2883C25.8273 54.8606 25.4562 55.2317 25.4562 55.6927C25.4562 56.1536 25.8273 56.5247 26.2883 56.5247H33.2258C33.9953 56.5247 34.6203 57.1497 34.6203 57.9231C34.6203 58.6926 33.9953 59.3176 33.2258 59.3176H26.2883C25.5187 59.3176 24.8938 58.6926 24.8938 57.9231C24.8938 57.4622 24.5188 57.0872 24.0578 57.0872C23.6008 57.0872 23.2258 57.4622 23.2258 57.9231C23.2258 59.6145 24.5969 60.9856 26.2883 60.9856H33.2258C34.0383 60.9856 34.8156 60.6614 35.3899 60.0872C35.9641 59.5129 36.2883 58.7357 36.2883 57.9232ZM47.4643 18.9622L43.1635 15.9817V11.1301C43.2104 9.11838 41.6127 7.44648 39.601 7.39958C37.5893 7.35661 35.9174 8.95038 35.8705 10.9621L31.8393 8.11048C30.5932 7.22376 28.9213 7.22376 27.6752 8.11048L12.0502 18.9625C10.8197 19.8023 10.2338 21.3141 10.5775 22.7633C10.9213 24.2125 12.1244 25.2985 13.6009 25.4938V42.1618C13.6009 44.5368 15.5267 46.4626 17.9017 46.4626H41.5897C43.9647 46.4587 45.8866 44.5368 45.8944 42.1618V25.4938C47.3749 25.3063 48.5819 24.2204 48.9296 22.7711C49.2812 21.3219 48.6986 19.806 47.4643 18.9622Z" fill="#fff"/>
</svg>
