<svg width="60" height="83" viewBox="0 0 60 83" fill="none" xmlns="http://www.w3.org/2000/svg">
<path d="M29.6904 82.7538C19.8974 82.7538 12.2334 78.9413 12.2334 74.0663C12.2334 70.5155 16.3272 67.5233 22.3384 66.1718H22.3345C23.1352 67.828 23.7251 69.578 24.0962 71.3788C24.561 74.0155 26.8423 75.9491 29.522 75.9726H29.8579C32.5376 75.9492 34.8188 74.0156 35.2837 71.3788C35.6548 69.578 36.2446 67.828 37.0454 66.1718C43.0571 67.5273 47.1504 70.5156 47.1504 74.0663C47.1465 78.9413 39.4834 82.7538 29.6904 82.7538ZM49.9094 29.7028C49.9094 35.0622 47.7805 40.2068 43.9875 43.9998C40.1945 47.7889 35.0539 49.9217 29.6905 49.9217C24.3271 49.9217 19.1865 47.7889 15.3935 43.9998C11.6005 40.2068 9.47156 35.0623 9.47156 29.7028C9.47156 24.3395 11.6005 19.1948 15.3935 15.4058C19.1865 11.6128 24.3271 9.48392 29.6905 9.48392C35.0499 9.49173 40.1865 11.6245 43.9795 15.4136C47.7686 19.2027 49.9016 24.3435 49.9094 29.7028ZM42.8899 34.0856L36.0149 30.2926V30.2965C35.6946 30.1168 35.3 30.1676 35.0344 30.4215L32.7414 32.6207V32.6168C31.8234 33.4957 30.4406 33.6676 29.3352 33.0465L29.136 32.9332L29.1399 32.9293C27.9211 32.2418 26.9211 31.2184 26.2649 29.984C25.6594 28.8785 25.8469 27.5074 26.7336 26.609L28.9836 24.316C29.2375 24.0543 29.2922 23.6559 29.1164 23.3356L25.3859 16.4294H25.3898C25.2063 16.0934 24.8117 15.9254 24.4406 16.0231L18.7336 17.5231C18.5461 17.5739 18.3821 17.6872 18.2727 17.8473C16.1555 21.32 15.5305 25.4996 16.5344 29.4413C17.2688 32.6952 18.9055 35.6757 21.2532 38.0468C23.6009 40.414 26.5696 42.0741 29.8157 42.8359C31.093 43.1328 32.4016 43.2851 33.7102 43.2851C36.425 43.3437 39.0969 42.6172 41.4094 41.2031C41.5734 41.0938 41.6945 40.9258 41.7414 40.7344L43.2844 35.0469C43.3899 34.6719 43.2258 34.277 42.8899 34.0856ZM33.8587 33.8278C32.4056 35.2184 30.2142 35.4919 28.4603 34.5036L28.2728 34.3903C26.7845 33.5427 25.5619 32.2926 24.7533 30.7848C23.8118 29.0309 24.1244 26.8668 25.5228 25.4528L27.3353 23.5973L24.2103 17.8043L19.4486 19.0543H19.4525C17.7845 22.1168 17.3158 25.691 18.14 29.0773C18.8041 32.0265 20.2884 34.7296 22.4212 36.8742C24.5501 39.0226 27.2454 40.5265 30.1907 41.2101C33.5657 42.0773 37.1438 41.6359 40.2107 39.9835L41.5037 35.2452L35.742 32.0577L33.8587 33.8278ZM50.1517 8.20281H50.1478C56.8548 14.5661 60.2098 23.6868 59.2259 32.8788C58.242 42.0708 53.0306 50.2768 45.1279 55.0778C41.1201 57.4333 37.8701 60.8864 35.7529 65.0231C34.7958 66.9723 34.0967 69.0348 33.6709 71.1598C33.3505 73.0036 31.7607 74.3629 29.8897 74.3903H29.5537C27.6826 74.363 26.0928 73.0036 25.7725 71.1598C25.3506 69.0309 24.6475 66.9645 23.6905 65.0153C21.6866 60.945 18.5264 57.5583 14.6085 55.2731C7.31551 50.9723 2.20651 43.7611 0.565512 35.4571C-1.07899 27.1524 0.901453 18.5431 6.00691 11.7891C11.1124 5.03521 18.8589 0.781112 27.2959 0.0981123C35.7334 -0.589388 44.0619 2.35981 50.1909 8.20361L50.1517 8.20281ZM36.2217 57.8588C36.2217 57.0463 35.8974 56.265 35.3232 55.6908C34.749 55.1166 33.9716 54.7963 33.1591 54.7963H26.2216C25.7607 54.7963 25.3896 55.1674 25.3896 55.6283C25.3896 56.0893 25.7607 56.4603 26.2216 56.4603H33.1591C33.9287 56.4603 34.5536 57.0853 34.5536 57.8587C34.5536 58.6283 33.9286 59.2532 33.1591 59.2532H26.2216C25.4521 59.2532 24.8271 58.6282 24.8271 57.8587C24.8271 57.3978 24.4521 57.0228 23.9912 57.0228C23.5341 57.0228 23.1591 57.3978 23.1591 57.8587C23.1591 59.5501 24.5302 60.9212 26.2216 60.9212H33.1591C33.9716 60.9212 34.7489 60.597 35.3232 60.0228C35.8975 59.4486 36.2217 58.6713 36.2217 57.8588ZM51.5657 29.7028C51.5657 23.8981 49.261 18.3358 45.1595 14.2338C41.0579 10.1322 35.4915 7.82761 29.6905 7.82761C23.8895 7.82761 18.3235 10.1323 14.2215 14.2338C10.1199 18.3354 7.81526 23.8979 7.81526 29.7028C7.81526 35.5036 10.12 41.0658 14.2215 45.1678C18.3231 49.2733 23.8895 51.578 29.6905 51.578C35.4915 51.578 41.0575 49.2733 45.1595 45.1678C49.2611 41.0662 51.5657 35.5037 51.5657 29.7028Z" fill="#fff"/>
</svg>
