<svg width="60" height="83" viewBox="0 0 60 83" fill="none" xmlns="http://www.w3.org/2000/svg">
<path d="M28.2825 0.0300884C19.7161 0.436338 11.7435 4.52619 6.41947 11.2451C1.09137 17.9678 -1.06493 26.6631 0.497571 35.0971C2.06007 43.5311 7.19287 50.8741 14.5756 55.2381C18.4936 57.5233 21.6537 60.91 23.6576 64.9803C24.6185 66.9295 25.3178 68.9959 25.7435 71.1248C26.0638 72.9686 27.6497 74.3279 29.5247 74.3553H29.8567C31.7278 74.3279 33.3176 72.9686 33.6379 71.1248C34.0637 68.9998 34.7629 66.9373 35.7199 64.9881C37.8371 60.8514 41.091 57.3983 45.0949 55.0428C52.6574 50.4373 57.7709 42.6948 59.0359 33.9338C60.3015 25.1682 57.5906 16.3008 51.6414 9.74279C45.6922 3.18419 37.1294 -0.378212 28.2824 0.031888L28.2825 0.0300884ZM33.2005 59.8741H26.263C24.5716 59.8741 23.2005 58.503 23.2005 56.8116C23.2005 56.3506 23.5755 55.9796 24.0325 55.9796C24.4934 55.9796 24.8684 56.3506 24.8684 56.8116C24.8684 57.5811 25.4934 58.2061 26.2629 58.2061H33.2004C33.97 58.2061 34.5949 57.5811 34.5949 56.8116C34.5949 56.0421 33.9699 55.4171 33.2004 55.4171H26.2629C25.802 55.4171 25.4309 55.0421 25.4309 54.5811C25.4309 54.1241 25.802 53.7491 26.2629 53.7491H33.2004C34.8918 53.7491 36.2629 55.1202 36.2629 56.8116C36.2629 58.503 34.8919 59.8741 33.2005 59.8741ZM29.7317 51.5811C23.9309 51.5811 18.3647 49.2764 14.2627 45.1749C10.1611 41.0733 7.85647 35.5108 7.85647 29.7059C7.85647 23.9051 10.1612 18.3429 14.2627 14.2409C18.3643 10.1354 23.9307 7.83069 29.7317 7.83069C35.5327 7.83069 41.0987 10.1354 45.2007 14.2409C49.3023 18.3425 51.6069 23.905 51.6069 29.7059C51.6069 35.5106 49.3022 41.0729 45.2007 45.1749C41.0991 49.2765 35.5327 51.5811 29.7317 51.5811ZM29.7317 9.48C24.3684 9.48 19.2277 11.6089 15.4347 15.4019C11.6417 19.191 9.51277 24.3355 9.51277 29.6989C9.51277 35.0583 11.6417 40.2029 15.4347 43.9959C19.2277 47.785 24.3683 49.9178 29.7317 49.9178C35.0951 49.9178 40.2357 47.785 44.0287 43.9959C47.8217 40.2029 49.9506 35.0584 49.9506 29.6989C49.9428 24.3395 47.81 19.1989 44.0209 15.4099C40.2279 11.6208 35.091 9.4878 29.7317 9.48ZM31.2317 31.5581V31.562C30.3684 32.3003 29.095 32.3003 28.2317 31.562L27.3684 30.8003L20.8996 36.4253C20.5402 36.73 20.0012 36.6831 19.7004 36.3237C19.3996 35.9643 19.4465 35.4253 19.8059 35.1245L26.0559 29.6557L19.8059 24.1869C19.4582 23.8861 19.4191 23.3588 19.7199 23.0111C20.0246 22.6635 20.552 22.6244 20.8996 22.9252L29.3254 30.2182C29.5598 30.4174 29.9035 30.4174 30.1379 30.2182L38.5637 22.9252C38.9114 22.6244 39.4387 22.6635 39.7434 23.0111C40.0442 23.3588 40.0051 23.8861 39.6575 24.1869L33.4075 29.6557L39.6575 35.1245C40.0051 35.4253 40.0442 35.9526 39.7434 36.3003C39.4387 36.648 38.9114 36.687 38.5637 36.3862L32.0949 30.7613L31.2317 31.5581ZM44.3137 35.6675C44.3137 38.1441 42.3059 40.1558 39.8254 40.1558C39.3644 40.1558 38.9933 39.7808 38.9933 39.3238C38.9933 38.8628 39.3644 38.4878 39.8254 38.4878C40.5754 38.4878 41.2902 38.1909 41.8215 37.6636C42.3527 37.1323 42.6496 36.4136 42.6496 35.6675V23.7295C42.6496 22.1709 41.384 20.9053 39.8254 20.9053H19.6884C18.1298 20.9053 16.8681 22.1709 16.8681 23.7295V35.6675C16.8681 37.2261 18.1298 38.4878 19.6884 38.4878C20.1493 38.4878 20.5243 38.8628 20.5243 39.3237C20.5243 39.7808 20.1493 40.1558 19.6884 40.1558C17.2118 40.1558 15.2001 38.1441 15.2001 35.6675V23.7295C15.204 21.2529 17.2157 19.249 19.6884 19.249H39.7744C40.9697 19.2333 42.126 19.7021 42.9775 20.542C43.8291 21.3818 44.3134 22.5303 44.3134 23.7295L44.3137 35.6675ZM29.7317 82.7495C19.9387 82.7495 12.2747 78.937 12.2747 74.062C12.2747 70.5112 16.3685 67.519 22.3797 66.1675H22.3758C23.1765 67.8237 23.7664 69.5737 24.1375 71.3745C24.6023 74.0112 26.8836 75.9448 29.5633 75.9683H29.8992C32.5789 75.9448 34.8601 74.0113 35.325 71.3745C35.6961 69.5737 36.2859 67.8237 37.0867 66.1675C43.0984 67.523 47.1917 70.5113 47.1917 74.062C47.1878 78.937 39.5247 82.7495 29.7317 82.7495Z" fill="#fff"/>
</svg>
