<svg width="102" height="102" viewBox="0 0 102 102" fill="none" xmlns="http://www.w3.org/2000/svg">
<g clip-path="url(#clip0_3_21)">
<path fill-rule="evenodd" clip-rule="evenodd" d="M51 0C79.1675 0 102 22.8325 102 51C102 79.1675 79.1675 102 51 102C22.8325 102 0 79.1675 0 51C0 22.8325 22.8325 0 51 0ZM44.3979 75.7709C44.3979 76.1235 44.6848 76.4103 45.0374 76.4103H54.1616C54.5162 76.4103 54.8011 76.1235 54.8011 75.7709V50.7988H61.4172C61.7498 50.7988 62.0268 50.5458 62.0546 50.2131L62.6902 42.6906C62.722 42.3161 62.4292 41.9953 62.0527 41.9953H54.8011V36.6582C54.8011 35.4071 55.8151 34.3931 57.0662 34.3931H62.1662C62.5188 34.3931 62.8057 34.1062 62.8057 33.7516V26.2291C62.8057 25.8765 62.5188 25.5896 62.1642 25.5896H53.552C48.4958 25.5896 44.3979 29.6876 44.3979 34.7418V41.9953H39.8358C39.4812 41.9953 39.1943 42.2822 39.1943 42.6368V50.1593C39.1943 50.5139 39.4812 50.7988 39.8358 50.7988H44.3979V75.7709Z" fill="white"/>
</g>
<defs>
<clipPath id="clip0_3_21">
<rect width="102" height="102" fill="white"/>
</clipPath>
</defs>
</svg>
