<svg width="102" height="102" viewBox="0 0 102 102" fill="none" xmlns="http://www.w3.org/2000/svg">
<g clip-path="url(#clip0_3_24)">
<path fill-rule="evenodd" clip-rule="evenodd" d="M51 0C79.1675 0 102 22.8325 102 51C102 79.1675 79.1675 102 51 102C22.8325 102 0 79.1675 0 51C0 22.8325 22.8325 0 51 0ZM40.3298 25.2749C30.7355 25.7132 25.6952 31.112 25.2769 40.3298C24.9581 47.3085 24.9581 54.6915 25.2769 61.6702C25.6952 70.888 30.7355 76.2868 40.3298 76.7251C47.3105 77.0419 54.6915 77.0419 61.6721 76.7251C70.89 76.3028 76.2868 71.2705 76.7251 61.6702C77.0419 54.6895 77.0419 47.3125 76.7251 40.3298C76.2948 30.9347 71.0673 25.7052 61.6721 25.2749C54.6915 24.9581 47.3105 24.9581 40.3298 25.2749ZM61.459 29.9346C68.4296 30.2514 71.7506 33.5704 72.0654 40.543C72.3802 47.3762 72.3802 54.6238 72.0654 61.457C71.7407 68.6309 68.2484 71.7566 61.459 72.0654C54.6218 72.3782 47.3802 72.3782 40.543 72.0654C33.7516 71.7566 30.2613 68.6309 29.9346 61.457C29.6218 54.6238 29.6218 47.3762 29.9346 40.543C30.2434 33.7496 33.3711 30.2613 40.543 29.9346C47.3802 29.6218 54.6218 29.6218 61.459 29.9346ZM51 59.6262C46.2367 59.6262 42.3738 55.7653 42.3738 51C42.3758 46.2347 46.2367 42.3738 51 42.3738C55.7653 42.3738 59.6282 46.2347 59.6282 51C59.6282 55.7633 55.7653 59.6262 51 59.6262ZM51 37.7101C43.6628 37.7101 37.7101 43.6608 37.7101 51C37.7101 58.3392 43.6608 64.2899 51 64.2899C58.3412 64.2899 64.2899 58.3392 64.2899 51C64.2899 43.6608 58.3412 37.7101 51 37.7101ZM67.9216 37.1842C67.9216 38.8995 66.5311 40.292 64.8158 40.292C63.0986 40.292 61.71 38.9014 61.71 37.1862C61.71 35.4709 63.0986 34.0804 64.8158 34.0804C66.5311 34.0804 67.9216 35.4709 67.9216 37.1842Z" fill="white"/>
</g>
<defs>
<clipPath id="clip0_3_24">
<rect width="102" height="102" fill="white"/>
</clipPath>
</defs>
</svg>
