<svg width="102" height="102" viewBox="0 0 102 102" fill="none" xmlns="http://www.w3.org/2000/svg">
<g clip-path="url(#clip0_3_18)">
<path fill-rule="evenodd" clip-rule="evenodd" d="M51 0C79.1675 0 102 22.8325 102 51C102 79.1675 79.1675 102 51 102C22.8325 102 0 79.1675 0 51C0 22.8325 22.8325 0 51 0ZM28.2811 74.6692H38.0488V43.1109H28.2811V74.6692ZM33.1181 38.9791C36.3096 38.9791 38.8955 36.3694 38.8955 33.154C38.8955 29.9386 36.3096 27.3308 33.1181 27.3308C29.9266 27.3308 27.3428 29.9386 27.3428 33.154C27.3428 36.3694 29.9266 38.9791 33.1181 38.9791ZM53.6636 58.1041C53.6636 53.6675 55.7075 51.0219 59.6182 51.0219C63.2081 51.0219 64.9354 53.56 64.9354 58.1041C64.9354 62.6483 64.9354 74.6692 64.9354 74.6692H74.6572C74.6572 74.6692 74.6572 63.1404 74.6572 54.6875C74.6572 46.2347 69.866 42.1467 63.1743 42.1467C56.4805 42.1467 53.6636 47.3623 53.6636 47.3623V43.1109H44.2943V74.6692H53.6636C53.6636 74.6692 53.6636 62.9651 53.6636 58.1041Z" fill="white"/>
</g>
<defs>
<clipPath id="clip0_3_18">
<rect width="102" height="102" fill="white"/>
</clipPath>
</defs>
</svg>
